<svg width="16" height="16" viewBox="0 0 16 16" fill="none" xmlns="http://www.w3.org/2000/svg">
<path fill-rule="evenodd" clip-rule="evenodd" d="M8 0.5C9.98912 0.5 11.8968 1.29018 13.3033 2.6967C14.7098 4.10322 15.5 6.01088 15.5 8C15.5 9.98912 14.7098 11.8968 13.3033 13.3033C11.8968 14.7098 9.98912 15.5 8 15.5H4.25C3.085 15.5 2.5025 15.5 2.04333 15.31C1.73992 15.1844 1.46424 15.0002 1.23203 14.768C0.999824 14.5358 0.815639 14.2601 0.690001 13.9567C0.500001 13.4975 0.5 12.915 0.5 11.75V8C0.5 6.01088 1.29018 4.10322 2.6967 2.6967C4.10322 1.29018 6.01088 0.5 8 0.5ZM11.3333 7.16667C11.3333 6.94565 11.2455 6.73369 11.0893 6.57741C10.933 6.42113 10.721 6.33333 10.5 6.33333H5.5C5.27899 6.33333 5.06703 6.42113 4.91074 6.57741C4.75446 6.73369 4.66667 6.94565 4.66667 7.16667C4.66667 7.38768 4.75446 7.59964 4.91074 7.75592C5.06703 7.9122 5.27899 8 5.5 8H10.5C10.721 8 10.933 7.9122 11.0893 7.75592C11.2455 7.59964 11.3333 7.38768 11.3333 7.16667ZM8.83333 10.5C8.83333 10.279 8.74554 10.067 8.58926 9.91074C8.43298 9.75446 8.22101 9.66667 8 9.66667H5.5C5.27899 9.66667 5.06703 9.75446 4.91074 9.91074C4.75446 10.067 4.66667 10.279 4.66667 10.5C4.66667 10.721 4.75446 10.933 4.91074 11.0893C5.06703 11.2455 5.27899 11.3333 5.5 11.3333H8C8.22101 11.3333 8.43298 11.2455 8.58926 11.0893C8.74554 10.933 8.83333 10.721 8.83333 10.5Z" fill="currrentColor"/>
</svg>
