<svg width="25" height="24" viewBox="0 0 25 24" fill="none" xmlns="http://www.w3.org/2000/svg">
<path opacity="0.5" d="M24.5 9.6H0.5V20.4C0.5 21.3548 0.879285 22.2705 1.55442 22.9456C2.22955 23.6207 3.14522 24 4.1 24H20.9C21.8548 24 22.7705 23.6207 23.4456 22.9456C24.1207 22.2705 24.5 21.3548 24.5 20.4V9.6ZM6.5 7.2C6.18174 7.2 5.87652 7.07357 5.65147 6.84853C5.42643 6.62348 5.3 6.31826 5.3 6V1.2C5.3 0.88174 5.42643 0.576515 5.65147 0.351472C5.87652 0.126428 6.18174 0 6.5 0C6.81826 0 7.12348 0.126428 7.34853 0.351472C7.57357 0.576515 7.7 0.88174 7.7 1.2V6C7.7 6.31826 7.57357 6.62348 7.34853 6.84853C7.12348 7.07357 6.81826 7.2 6.5 7.2ZM18.5 7.2C18.1817 7.2 17.8765 7.07357 17.6515 6.84853C17.4264 6.62348 17.3 6.31826 17.3 6V1.2C17.3 0.88174 17.4264 0.576515 17.6515 0.351472C17.8765 0.126428 18.1817 0 18.5 0C18.8183 0 19.1235 0.126428 19.3485 0.351472C19.5736 0.576515 19.7 0.88174 19.7 1.2V6C19.7 6.31826 19.5736 6.62348 19.3485 6.84853C19.1235 7.07357 18.8183 7.2 18.5 7.2Z" fill="black"/>
<path d="M20.9 2.5H19.7V6.1C19.7 6.41826 19.5736 6.72348 19.3485 6.94853C19.1235 7.17357 18.8183 7.3 18.5 7.3C18.1817 7.3 17.8765 7.17357 17.6515 6.94853C17.4264 6.72348 17.3 6.41826 17.3 6.1V2.5H7.7V6.1C7.7 6.41826 7.57357 6.72348 7.34853 6.94853C7.12348 7.17357 6.81826 7.3 6.5 7.3C6.18174 7.3 5.87652 7.17357 5.65147 6.94853C5.42643 6.72348 5.3 6.41826 5.3 6.1V2.5H4.1C3.14522 2.5 2.22955 2.87928 1.55442 3.55442C0.879285 4.22955 0.5 5.14522 0.5 6.1V9.7H24.5V6.1C24.5 5.14522 24.1207 4.22955 23.4456 3.55442C22.7705 2.87928 21.8548 2.5 20.9 2.5Z" fill="black"/>
</svg>
