<svg width="12" height="18" viewBox="0 0 12 18" fill="none" xmlns="http://www.w3.org/2000/svg">
<path d="M5.99984 8.58335C5.4473 8.58335 4.9174 8.36386 4.5267 7.97316C4.136 7.58246 3.9165 7.05255 3.9165 6.50002C3.9165 5.94749 4.136 5.41758 4.5267 5.02688C4.9174 4.63618 5.4473 4.41669 5.99984 4.41669C6.55237 4.41669 7.08228 4.63618 7.47298 5.02688C7.86368 5.41758 8.08317 5.94749 8.08317 6.50002C8.08317 6.77361 8.02928 7.04452 7.92459 7.29728C7.81989 7.55004 7.66643 7.7797 7.47298 7.97316C7.27952 8.16661 7.04986 8.32007 6.79709 8.42477C6.54433 8.52947 6.27342 8.58335 5.99984 8.58335ZM5.99984 0.666687C4.45274 0.666687 2.96901 1.28127 1.87505 2.37523C0.781085 3.46919 0.166504 4.95292 0.166504 6.50002C0.166504 10.875 5.99984 17.3334 5.99984 17.3334C5.99984 17.3334 11.8332 10.875 11.8332 6.50002C11.8332 4.95292 11.2186 3.46919 10.1246 2.37523C9.03066 1.28127 7.54693 0.666687 5.99984 0.666687Z" fill="#757575"/>
</svg>
