<svg width="18" height="24" viewBox="0 0 18 24" fill="none" xmlns="http://www.w3.org/2000/svg">
<path d="M8.65 11.4C7.85435 11.4 7.09129 11.0839 6.52868 10.5213C5.96607 9.95871 5.65 9.19565 5.65 8.4C5.65 7.60435 5.96607 6.84129 6.52868 6.27868C7.09129 5.71607 7.85435 5.4 8.65 5.4C9.44565 5.4 10.2087 5.71607 10.7713 6.27868C11.3339 6.84129 11.65 7.60435 11.65 8.4C11.65 8.79397 11.5724 9.18407 11.4216 9.54805C11.2709 9.91203 11.0499 10.2427 10.7713 10.5213C10.4927 10.7999 10.162 11.0209 9.79805 11.1716C9.43407 11.3224 9.04397 11.4 8.65 11.4ZM8.65 0C6.42218 0 4.28561 0.884997 2.7103 2.4603C1.135 4.03561 0.25 6.17218 0.25 8.4C0.25 14.7 8.65 24 8.65 24C8.65 24 17.05 14.7 17.05 8.4C17.05 6.17218 16.165 4.03561 14.5897 2.4603C13.0144 0.884997 10.8778 0 8.65 0Z" fill="#0B8CE8"/>
</svg>
