<svg width="16" height="16" viewBox="0 0 16 16" fill="none" xmlns="http://www.w3.org/2000/svg">
<path d="M8 0C9.20811 0.000698213 10.4004 0.275006 11.4873 0.802337C12.5743 1.32967 13.5277 2.09633 14.276 3.04479C15.0243 3.99324 15.5481 5.09886 15.808 6.27868C16.0679 7.45849 16.0573 8.68186 15.7769 9.85697C15.4964 11.0321 14.9535 12.1284 14.1888 13.0637C13.4241 13.999 12.4575 14.749 11.3616 15.2573C10.2656 15.7657 9.06877 16.0192 7.86083 15.9989C6.65289 15.9785 5.46524 15.6849 4.387 15.14L4.266 15.075L0.621 15.985C0.550851 16.0026 0.47771 16.0048 0.406625 15.9915C0.335539 15.9781 0.268201 15.9495 0.209258 15.9075C0.150315 15.8656 0.101171 15.8114 0.0652158 15.7486C0.0292608 15.6859 0.00735144 15.6161 0.000999928 15.544V15.462L0.0150001 15.379L0.925 11.735L0.862 11.615C0.40552 10.7137 0.123889 9.73411 0.0320001 8.728L0.00699997 8.346L0 8C0 5.87827 0.842855 3.84344 2.34315 2.34315C3.84344 0.842855 5.87827 0 8 0ZM8.5 9H5.5L5.41 9.008C5.29472 9.02887 5.19043 9.08957 5.11532 9.17949C5.04022 9.26941 4.99908 9.38284 4.99908 9.5C4.99908 9.61716 5.04022 9.73059 5.11532 9.82051C5.19043 9.91043 5.29472 9.97113 5.41 9.992L5.5 10H8.5L8.59 9.992C8.70528 9.97113 8.80957 9.91043 8.88468 9.82051C8.95978 9.73059 9.00092 9.61716 9.00092 9.5C9.00092 9.38284 8.95978 9.26941 8.88468 9.17949C8.80957 9.08957 8.70528 9.02887 8.59 9.008L8.5 9ZM10.5 6H5.5L5.41 6.008C5.29472 6.02887 5.19043 6.08957 5.11532 6.17949C5.04022 6.26941 4.99908 6.38284 4.99908 6.5C4.99908 6.61716 5.04022 6.73059 5.11532 6.82051C5.19043 6.91043 5.29472 6.97113 5.41 6.992L5.5 7H10.5L10.59 6.992C10.7053 6.97113 10.8096 6.91043 10.8847 6.82051C10.9598 6.73059 11.0009 6.61716 11.0009 6.5C11.0009 6.38284 10.9598 6.26941 10.8847 6.17949C10.8096 6.08957 10.7053 6.02887 10.59 6.008L10.5 6Z" fill="currentColor"/>
</svg>
